<svg width="38" height="29" viewBox="0 0 38 29" fill="none" xmlns="http://www.w3.org/2000/svg">
<g filter="url(#filter0_d_175_1280)">
<path fill-rule="evenodd" clip-rule="evenodd" d="M27.5608 6.5572C28.2307 5.89572 28.1221 4.91263 27.3182 4.3614C26.5143 3.81017 25.3196 3.89954 24.6497 4.56102L15.8996 13.2009C14.9629 14.1259 14.3877 14.688 13.9138 15.0401C13.694 15.2034 13.5636 15.2685 13.5011 15.2934C13.4885 15.2984 13.4794 15.3015 13.4737 15.3032C13.468 15.3015 13.4589 15.2984 13.4462 15.2934C13.3838 15.2685 13.2534 15.2034 13.0336 15.0401C12.5597 14.688 11.9845 14.1259 11.0477 13.2009L7.35035 9.55005C6.68044 8.88857 5.48569 8.7992 4.6818 9.35043C3.87791 9.90166 3.7693 10.8848 4.43921 11.5462L8.21729 15.2768C9.0471 16.0963 9.79517 16.8351 10.4939 17.3544C11.2542 17.9193 12.2118 18.4224 13.4737 18.4224C14.7356 18.4224 15.6932 17.9193 16.4535 17.3544C17.1522 16.8351 17.9003 16.0963 18.7301 15.2768L27.5608 6.5572Z" fill="url(#paint0_linear_175_1280)"/>
</g>
<defs>
<filter id="filter0_d_175_1280" x="0.744169" y="0.744169" width="37.0233" height="27.4462" filterUnits="userSpaceOnUse" color-interpolation-filters="sRGB">
<feFlood flood-opacity="0" result="BackgroundImageFix"/>
<feColorMatrix in="SourceAlpha" type="matrix" values="0 0 0 0 0 0 0 0 0 0 0 0 0 0 0 0 0 0 127 0" result="hardAlpha"/>
<feOffset dx="3.25583" dy="3.25583"/>
<feGaussianBlur stdDeviation="3.25583"/>
<feColorMatrix type="matrix" values="0 0 0 0 0.960784 0 0 0 0 0.768627 0 0 0 0 0.054902 0 0 0 0.5 0"/>
<feBlend mode="normal" in2="BackgroundImageFix" result="effect1_dropShadow_175_1280"/>
<feBlend mode="normal" in="SourceGraphic" in2="effect1_dropShadow_175_1280" result="shape"/>
</filter>
<linearGradient id="paint0_linear_175_1280" x1="16.2021" y1="21.495" x2="33.9444" y2="-7.44652" gradientUnits="userSpaceOnUse">
<stop stop-color="white"/>
<stop offset="1" stop-color="white" stop-opacity="0.2"/>
</linearGradient>
</defs>
</svg>
