<svg width="28" height="21" viewBox="0 0 28 21" fill="none" xmlns="http://www.w3.org/2000/svg">
<path d="M23.0484 1.73033C21.259 0.911594 19.3767 0.32074 17.4354 0C17.1906 0.430467 16.9121 1.01286 16.718 1.47709C14.6585 1.17323 12.5568 1.17323 10.4973 1.47709C10.2779 0.970662 10.0331 0.481111 9.76299 0C7.82167 0.329181 5.93096 0.911576 4.14157 1.73875C0.596541 7.02253 -0.365645 12.1797 0.115466 17.2525C2.19184 18.7971 4.5214 19.9703 7.00292 20.73C7.56 19.9703 8.05799 19.1769 8.48002 18.3328C7.67816 18.029 6.90164 17.6576 6.15887 17.2271C6.353 17.0837 6.53872 16.9317 6.71597 16.7882C11.0797 18.8477 16.1356 18.8477 20.4909 16.7882C20.6766 16.9402 20.8707 17.0921 21.0564 17.2271C20.3137 17.666 19.5371 18.0374 18.7268 18.3413C19.1489 19.1769 19.6469 19.9788 20.2039 20.73C22.6855 19.9788 25.015 18.8055 27.0914 17.2525C27.6569 11.3694 26.1292 6.26289 23.0484 1.73033ZM9.07931 14.1379C7.73727 14.1379 6.63154 12.9056 6.63154 11.3947C6.63154 9.88387 7.71195 8.64313 9.07931 8.64313C10.4467 8.64313 11.5355 9.87545 11.527 11.3863C11.5102 12.9056 10.4467 14.1379 9.07931 14.1379ZM18.1191 14.1379C16.7771 14.1379 15.6714 12.9056 15.6714 11.3947C15.6714 9.88387 16.7517 8.64313 18.1191 8.64313C19.4865 8.64313 20.5753 9.87545 20.5669 11.3863C20.55 12.9056 19.4865 14.1379 18.1191 14.1379Z" fill="white"/>
</svg>
