<svg width="100" height="100" viewBox="0 0 100 100" fill="none" xmlns="http://www.w3.org/2000/svg">
<ellipse cx="65" cy="39.5" rx="14" ry="13.5" fill="url(#paint0_linear_175_1189)"/>
<g clip-path="url(#clip0_175_1189)">
<g filter="url(#filter0_b_175_1189)">
<path fill-rule="evenodd" clip-rule="evenodd" d="M54.6722 28.8735C55.0109 27.9336 54.5366 26.8924 53.613 26.5478C52.6894 26.2032 51.6661 26.6857 51.3274 27.6256L50.7522 29.222C50.4039 30.1885 49.4999 30.831 48.4883 30.831C45.6612 30.831 43.2212 32.8475 42.6415 35.663L41.8197 39.6541C41.6806 39.6302 41.542 39.6033 41.4038 39.5735C40.4107 39.3589 39.4248 38.9232 36.9897 37.8219L35.7286 37.2516C34.055 36.4947 32.244 36.1037 30.4127 36.1037C22.4474 36.1037 16.3288 43.2822 17.4553 51.3057L18.0037 55.2117L21.4623 67.5294C22.465 71.1002 25.6724 73.562 29.3221 73.562C32.1035 73.562 34.694 72.1229 36.1981 69.7422L37.0872 68.3348C40.088 63.585 46.9116 63.585 49.9125 68.3348L50.4563 69.1957C52.1756 71.917 55.1367 73.562 58.316 73.562C62.9659 73.562 66.9081 70.0829 67.5657 65.399L69.5443 51.3057C70.6708 43.2822 64.5522 36.1037 56.587 36.1037C54.7556 36.1037 52.9446 36.4947 51.2711 37.2516L50.01 37.8219C47.5748 38.9232 46.589 39.3589 45.5958 39.5735C45.5542 39.5825 45.5125 39.5912 45.4707 39.5996L46.1283 36.4064C46.3623 35.2699 47.3471 34.456 48.4883 34.456C50.9944 34.456 53.2341 32.8642 54.0969 30.47L54.6722 28.8735Z" fill="#29ACD6" fill-opacity="0.35"/>
<path fill-rule="evenodd" clip-rule="evenodd" d="M54.6722 28.8735C55.0109 27.9336 54.5366 26.8924 53.613 26.5478C52.6894 26.2032 51.6661 26.6857 51.3274 27.6256L50.7522 29.222C50.4039 30.1885 49.4999 30.831 48.4883 30.831C45.6612 30.831 43.2212 32.8475 42.6415 35.663L41.8197 39.6541C41.6806 39.6302 41.542 39.6033 41.4038 39.5735C40.4107 39.3589 39.4248 38.9232 36.9897 37.8219L35.7286 37.2516C34.055 36.4947 32.244 36.1037 30.4127 36.1037C22.4474 36.1037 16.3288 43.2822 17.4553 51.3057L18.0037 55.2117L21.4623 67.5294C22.465 71.1002 25.6724 73.562 29.3221 73.562C32.1035 73.562 34.694 72.1229 36.1981 69.7422L37.0872 68.3348C40.088 63.585 46.9116 63.585 49.9125 68.3348L50.4563 69.1957C52.1756 71.917 55.1367 73.562 58.316 73.562C62.9659 73.562 66.9081 70.0829 67.5657 65.399L69.5443 51.3057C70.6708 43.2822 64.5522 36.1037 56.587 36.1037C54.7556 36.1037 52.9446 36.4947 51.2711 37.2516L50.01 37.8219C47.5748 38.9232 46.589 39.3589 45.5958 39.5735C45.5542 39.5825 45.5125 39.5912 45.4707 39.5996L46.1283 36.4064C46.3623 35.2699 47.3471 34.456 48.4883 34.456C50.9944 34.456 53.2341 32.8642 54.0969 30.47L54.6722 28.8735Z" stroke="url(#paint1_linear_175_1189)"/>
</g>
<g filter="url(#filter1_d_175_1189)">
<path fill-rule="evenodd" clip-rule="evenodd" d="M57.7501 47.5827C57.7501 48.9174 56.6868 49.9993 55.3751 49.9993C54.0635 49.9993 53.0001 48.9174 53.0001 47.5827C53.0001 46.248 54.0635 45.166 55.3751 45.166C56.6868 45.166 57.7501 46.248 57.7501 47.5827ZM53.0001 52.416C53.0001 53.7507 51.9368 54.8327 50.6251 54.8327C49.3135 54.8327 48.2501 53.7507 48.2501 52.416C48.2501 51.0813 49.3135 49.9993 50.6251 49.9993C51.9368 49.9993 53.0001 51.0813 53.0001 52.416ZM60.1251 54.8327C61.4368 54.8327 62.5001 53.7507 62.5001 52.416C62.5001 51.0813 61.4368 49.9993 60.1251 49.9993C58.8135 49.9993 57.7501 51.0813 57.7501 52.416C57.7501 53.7507 58.8135 54.8327 60.1251 54.8327ZM57.7501 57.2493C57.7501 58.584 56.6868 59.666 55.3751 59.666C54.0635 59.666 53.0001 58.584 53.0001 57.2493C53.0001 55.9147 54.0635 54.8327 55.3751 54.8327C56.6868 54.8327 57.7501 55.9147 57.7501 57.2493ZM33.4063 47.5827C33.4063 46.5817 32.6088 45.7702 31.625 45.7702C30.6412 45.7702 29.8437 46.5817 29.8437 47.5827V50.6035H26.875C25.8912 50.6035 25.0938 51.415 25.0938 52.416C25.0938 53.417 25.8912 54.2285 26.875 54.2285H29.8437V57.2493C29.8437 58.2504 30.6412 59.0618 31.625 59.0618C32.6088 59.0618 33.4063 58.2504 33.4063 57.2493V54.2285H36.375C37.3588 54.2285 38.1562 53.417 38.1562 52.416C38.1562 51.415 37.3588 50.6035 36.375 50.6035H33.4063V47.5827Z" fill="url(#paint2_linear_175_1189)"/>
</g>
</g>
<defs>
<filter id="filter0_b_175_1189" x="-7.17871" y="1.93652" width="101.357" height="96.126" filterUnits="userSpaceOnUse" color-interpolation-filters="sRGB">
<feFlood flood-opacity="0" result="BackgroundImageFix"/>
<feGaussianBlur in="BackgroundImageFix" stdDeviation="12"/>
<feComposite in2="SourceAlpha" operator="in" result="effect1_backgroundBlur_175_1189"/>
<feBlend mode="normal" in="SourceGraphic" in2="effect1_backgroundBlur_175_1189" result="shape"/>
</filter>
<filter id="filter1_d_175_1189" x="22.0938" y="42.166" width="53.4062" height="30.5" filterUnits="userSpaceOnUse" color-interpolation-filters="sRGB">
<feFlood flood-opacity="0" result="BackgroundImageFix"/>
<feColorMatrix in="SourceAlpha" type="matrix" values="0 0 0 0 0 0 0 0 0 0 0 0 0 0 0 0 0 0 127 0" result="hardAlpha"/>
<feOffset dx="5" dy="5"/>
<feGaussianBlur stdDeviation="4"/>
<feColorMatrix type="matrix" values="0 0 0 0 0.176471 0 0 0 0 0.556863 0 0 0 0 0.678431 0 0 0 0.5 0"/>
<feBlend mode="normal" in2="BackgroundImageFix" result="effect1_dropShadow_175_1189"/>
<feBlend mode="normal" in="SourceGraphic" in2="effect1_dropShadow_175_1189" result="shape"/>
</filter>
<linearGradient id="paint0_linear_175_1189" x1="51" y1="53" x2="78.6008" y2="25.5979" gradientUnits="userSpaceOnUse">
<stop stop-color="#207894"/>
<stop offset="1" stop-color="#2ECDFF"/>
</linearGradient>
<linearGradient id="paint1_linear_175_1189" x1="17.3213" y1="26.4365" x2="64.2156" y2="78.4839" gradientUnits="userSpaceOnUse">
<stop stop-color="white" stop-opacity="0.25"/>
<stop offset="1" stop-color="white" stop-opacity="0"/>
</linearGradient>
<linearGradient id="paint2_linear_175_1189" x1="44.1119" y1="62.7551" x2="57.8018" y2="28.1362" gradientUnits="userSpaceOnUse">
<stop stop-color="white"/>
<stop offset="1" stop-color="white" stop-opacity="0.2"/>
</linearGradient>
<clipPath id="clip0_175_1189">
<rect width="57" height="58" fill="white" transform="translate(15 21)"/>
</clipPath>
</defs>
</svg>
