<svg width="16" height="16" viewBox="0 0 16 16" fill="none" xmlns="http://www.w3.org/2000/svg">
<g opacity="0.7">
<path d="M7.79045 12.8194C6.77431 12.8194 5.85495 12.5968 5.03236 12.1517C4.21945 11.6968 3.58073 11.0775 3.11621 10.2936C2.65169 9.50003 2.41943 8.6097 2.41943 7.6226C2.41943 6.63549 2.65169 5.75 3.11621 4.96612C3.58073 4.17257 4.22429 3.55321 5.04688 3.10805C5.86946 2.6532 6.78883 2.42578 7.80496 2.42578C8.59852 2.42578 9.32433 2.56127 9.9824 2.83224C10.6405 3.09353 11.2018 3.48547 11.6663 4.00805L10.7227 4.92258C9.95821 4.11934 9.00497 3.71773 7.86303 3.71773C7.10818 3.71773 6.42592 3.88708 5.81624 4.2258C5.20655 4.56451 4.72752 5.03387 4.37913 5.63387C4.04041 6.2242 3.87106 6.88711 3.87106 7.6226C3.87106 8.35809 4.04041 9.02584 4.37913 9.62584C4.72752 10.2162 5.20655 10.6807 5.81624 11.0194C6.42592 11.3581 7.10818 11.5275 7.86303 11.5275C8.9953 11.5275 9.94853 11.121 10.7227 10.3081L11.6663 11.2226C11.2018 11.7452 10.6356 12.142 9.96788 12.413C9.30981 12.6839 8.584 12.8194 7.79045 12.8194Z" fill="white"/>
<circle cx="7.56055" cy="7.56055" r="7.06055" stroke="white"/>
</g>
</svg>
