<svg width="24" height="20" viewBox="0 0 24 20" fill="none" xmlns="http://www.w3.org/2000/svg">
<path d="M23.6585 2.39918C22.9061 2.74826 22.0662 2.96308 21.2525 3.09735C21.6374 3.03469 22.2061 2.31864 22.4336 2.02326C22.7836 1.58467 23.0723 1.08342 23.2298 0.537421C23.2473 0.492666 23.2648 0.438948 23.221 0.412096C23.1685 0.394194 23.1336 0.403154 23.0898 0.421055C22.1799 0.922302 21.2437 1.28034 20.2376 1.53991C20.1588 1.55781 20.0976 1.53991 20.0451 1.48621C19.9664 1.38775 19.8876 1.29823 19.8001 1.22662C19.3802 0.859641 18.9252 0.573213 18.4178 0.358393C17.7528 0.080917 17.0179 -0.0354296 16.3005 0.00932453C15.6005 0.0540787 14.9181 0.259942 14.2969 0.591123C13.6757 0.922304 13.1158 1.38773 12.6783 1.94268C12.2234 2.51553 11.8821 3.20477 11.7072 3.92084C11.5409 4.619 11.5584 5.30821 11.6547 6.01533C11.6722 6.13169 11.6634 6.14959 11.5584 6.13169C7.64754 5.53199 4.40161 4.1088 1.77687 1.03867C1.66313 0.904402 1.60188 0.904384 1.50564 1.0476C0.350756 2.81091 0.910703 5.64834 2.35431 7.04467C2.54679 7.23264 2.73926 7.42061 2.95799 7.58172C2.87925 7.59963 1.9256 7.49221 1.06819 7.04467C0.954447 6.97306 0.893197 7.00885 0.884448 7.14311C0.875699 7.33108 0.893205 7.51011 0.919452 7.71598C1.13818 9.50615 2.35431 11.1621 4.0079 11.8065C4.20913 11.8871 4.41912 11.9676 4.63784 12.0034C4.26163 12.084 3.86791 12.1466 2.78301 12.0661C2.65178 12.0392 2.59929 12.1108 2.65178 12.2451C3.46545 14.5186 5.22403 15.1899 6.54515 15.5748C6.72014 15.6106 6.89512 15.6106 7.07885 15.6464C7.0701 15.6643 7.06136 15.6643 7.04386 15.6822C6.6064 16.3625 5.09279 16.8727 4.38411 17.1233C3.09798 17.5798 1.70687 17.7857 0.350749 17.6514C0.13202 17.6156 0.0882788 17.6246 0.0270347 17.6514C-0.0342093 17.6872 0.0182786 17.7409 0.0882719 17.8036C0.359496 17.9915 0.639475 18.1527 0.928197 18.3138C1.78561 18.7792 2.68678 19.1552 3.62294 19.4147C8.46997 20.7842 13.9294 19.7817 17.5691 16.0761C20.4301 13.167 21.4275 9.16602 21.4275 5.1471C21.4275 4.98598 21.6112 4.90541 21.7162 4.82485C22.4599 4.252 23.0636 3.57175 23.6148 2.80198C23.7373 2.63191 23.7372 2.47973 23.7372 2.41707C23.7372 2.40812 23.7372 2.39918 23.7372 2.39918C23.7635 2.33653 23.7547 2.35443 23.6585 2.39918Z" fill="white"/>
</svg>
