<svg width="30" height="24" viewBox="0 0 30 24" fill="none" xmlns="http://www.w3.org/2000/svg">
<path fill-rule="evenodd" clip-rule="evenodd" d="M22.124 7.89184H26.6162V7.23103C25.9131 4.68963 24.126 4.70621 21.9165 4.72752C21.5527 4.73226 21.2231 4.73463 21.2036 4.73463H4.41162C4.02588 4.73463 3.71338 4.43146 3.71338 4.05724C3.71338 3.68302 4.02588 3.37985 4.41162 3.37985H21.2036C21.6992 3.37985 21.8042 3.37985 21.9043 3.37748C23.7939 3.35853 25.4443 3.34195 26.6162 4.41488V4.10461C26.6162 3.34669 26.2964 2.65982 25.7813 2.16007C25.2661 1.66032 24.5557 1.35004 23.7769 1.35004H4.2334C3.45215 1.35004 2.74414 1.66032 2.229 2.16007C1.71387 2.65982 1.39404 3.34906 1.39404 4.10461V19.8883C1.39404 20.6462 1.71387 21.3331 2.229 21.8328C2.74414 22.3326 3.45459 22.6428 4.2334 22.6428H23.7744C24.5557 22.6428 25.2637 22.3326 25.7788 21.8328C26.2939 21.3331 26.6138 20.6438 26.6138 19.8883V17.6477H22.1216C20.7666 17.6477 19.5337 17.11 18.6426 16.2455C17.7515 15.381 17.1973 14.1849 17.1973 12.8704V12.6644C17.1973 11.3498 17.7515 10.1538 18.6426 9.28925C19.5361 8.42949 20.7666 7.89184 22.124 7.89184ZM28.0103 7.91789C28.5156 7.99132 28.9673 8.22343 29.3115 8.55976C29.7363 8.97187 29.9976 9.54031 29.9976 10.1656V15.2816C29.9976 15.9353 29.7241 16.5274 29.2822 16.9561C28.9429 17.2853 28.501 17.5198 28.0103 17.6098V19.8907C28.0103 21.0204 27.5342 22.0484 26.7676 22.7921C26.001 23.5358 24.9414 23.9976 23.7769 23.9976H4.2334C3.06885 23.9976 2.00928 23.5358 1.24268 22.7921C0.476074 22.0507 0 21.0228 0 19.893V4.10698C0 2.9772 0.476074 1.94927 1.24268 1.20557C2.00928 0.461857 3.06885 0 4.2334 0H23.7744C24.939 0 25.9985 0.461857 26.7651 1.20557C27.5317 1.94927 28.0078 2.9772 28.0078 4.10698V7.91789H28.0103ZM21.5186 10.9211C22.5073 10.9211 23.3081 11.698 23.3081 12.6573C23.3081 13.6165 22.5073 14.3934 21.5186 14.3934C20.5298 14.3934 19.729 13.6165 19.729 12.6573C19.729 11.698 20.5298 10.9211 21.5186 10.9211Z" fill="white"/>
</svg>
